<?xml version="1.0" encoding="utf-8"?>
<!-- Generator: Adobe Illustrator 19.2.1, SVG Export Plug-In . SVG Version: 6.00 Build 0)  -->
<svg version="1.1" id="Calque_1" xmlns="http://www.w3.org/2000/svg" xmlns:xlink="http://www.w3.org/1999/xlink" x="0px" y="0px"
	 viewBox="0 0 333.6 323.9" style="enable-background:new 0 0 333.6 323.9;" xml:space="preserve">
<style type="text/css">
	.st0{fill:#336666;}
</style>
<path class="st0" d="M169.5,147.5c6.7-12.2,12.9-23.4,19-34.7c2.5-4.5,4.7-9.2,7.5-13.5c1.8-2.8,1.4-4.4-0.8-6.7
	C184.7,81.5,183,68.7,190.1,57c7.9-13.1,27.2-18.7,42.6-12.3c14.3,6,22.9,19.3,20.7,32.4c-2.4,14.4-14.1,24.5-29.3,25.2
	c-4.1,0.2-8.3-0.2-12.4-0.7c-3.1-0.4-4.9,0.3-6.5,3.1c-8.8,16.6-17.9,33.1-26.6,49.7c-1.2,2.4-2,6.2-1,8.4c6.2,13,13,25.7,20.5,39
	c7.6-23.1,26.6-34.8,45.4-46.3c-6.9-16.3-5.4-27.8,4.8-37.6c9.9-9.6,25.9-11,40.1-3.6c12.8,6.7,19.1,17.6,17.4,30.3
	c-2,15.4-15.9,26.3-33.2,25.1c-6.2-0.4-12.2-2.8-18.4-4.2c-1.5-0.3-3.4-0.9-4.6-0.3c-14.4,7.3-28.4,15.2-35.8,30.5
	c-3,6.1-5,12.7-6.9,19.2c-0.6,2.3,0,5.4,1.1,7.6c8.5,16.8,17.4,33.4,26.1,50.1c1.8,3.4,3.7,6.7,5.1,10.3c0.6,1.7,0.6,5.1-0.3,5.6
	c-1.9,1-4.7,1.3-6.8,0.6c-1.6-0.5-2.8-2.7-3.7-4.4c-8.1-14.8-16.4-29.4-23.9-44.4c-9-18-24.6-24-42.9-24.9
	c-13.9-0.7-26.2,5.4-38.3,11.5c-1.1,0.6-1.9,2.6-2.1,4c-2.2,13.6-9.6,22.9-22.5,27.5c-13.1,4.7-25.5,2.9-36.2-6
	c-16.5-13.8-12.6-40.5,7.2-51.3c16-8.8,34.7-4.9,47,10.3c3.2,3.9,5.7,4.5,10,2.3c15.5-7.5,31.7-11.3,48.9-7.1
	c4.3,1,8.5,2.6,13.8,4.2c-3.6-7.1-7.4-13.3-9.9-20c-6.6-17.6-20.3-25.5-37.7-28.7c-13.6-2.5-27.2-5-40.8-7.4
	c-7.5-1.3-7.6-1.2-10.9,5.7c-7,14.2-24.8,21.3-42.1,16.6c-15.4-4.2-24.9-17.7-23-32.8C26.7,129,42,116,57.6,115.9
	c16.9,0,31.3,9.8,35.5,24.7c0.4,1.5,3,3,4.7,3.3c13.7,2.6,27.6,4.8,41.3,7.5c7.5,1.5,14.8,3.7,22.6,5.6c-0.3-1-0.6-2-1-2.9
	c-9.6-18.1-19.4-36.1-28.9-54.2c-1.9-3.7-4.1-4.6-8.1-4.8c-6.1-0.4-12.4-1-18-3.2C92.4,86.8,85,73.4,87.2,60
	c2.1-13,15-24.3,29.2-25.3c12.4-0.9,23.1,2.9,31.3,12.4c10.4,12,9.1,27.9-3.7,39.1c-4.3,3.8-3.9,6.2-1.6,10.6
	c8.4,15.5,16.4,31.2,24.5,46.9C167.5,144.6,168.2,145.5,169.5,147.5z M84.8,250.6c13.9-0.1,24.7-10.1,24.8-22.8
	c0-11.5-10.3-20.4-23.3-20.3c-12.8,0.2-22.8,9.8-22.8,22.3C63.4,240.6,73.6,250.6,84.8,250.6z M81.7,147.2
	c-0.2-11.8-10.5-20.8-23.6-20.7c-12.3,0.1-22.4,10.1-22.1,21.7c0.3,11.1,10.6,20.3,22.6,20.2C71.6,168.3,81.9,158.8,81.7,147.2z
	 M220.2,92.5c10.5-0.1,18.3-5,21.5-13.3c2.8-7.5,0.6-15.3-6-21.1c-8.6-7.5-23.1-7.7-31.8-0.4c-6.6,5.5-8.6,12.8-5.7,20.6
	C201.3,86.7,210.5,92.6,220.2,92.5z M117.7,84.9c13.8,0.2,23.4-7.2,25.5-17.9c1.6-8.2-4.2-16.8-14.2-20.9
	c-8.5-3.5-19.8-1.1-25.9,5.4c-5.9,6.3-6.9,14.1-2.6,22.1C104.6,81.3,111.3,85,117.7,84.9z M271.3,120.1
	c-11.3-0.2-20.7,8.1-20.9,18.4c-0.2,11.5,9.5,21.3,21.6,21.8c13.2,0.5,22.5-7.7,22.7-19.8C294.8,129.4,284.4,120.4,271.3,120.1z"/>
</svg>
