<?xml version="1.0" standalone="no"?>
<!DOCTYPE svg PUBLIC "-//W3C//DTD SVG 20010904//EN"
 "http://www.w3.org/TR/2001/REC-SVG-20010904/DTD/svg10.dtd">
<svg version="1.0" xmlns="http://www.w3.org/2000/svg"
 width="350.000000pt" height="350.000000pt" viewBox="0 0 350.000000 350.000000"
 preserveAspectRatio="xMidYMid meet">
<metadata>
Created by potrace 1.14, written by Peter Selinger 2001-2017
</metadata>
<g transform="translate(0.000000,350.000000) scale(0.100000,-0.100000)"
fill="#000000" stroke="none">
<path d="M1188 3014 c-21 -7 -58 -27 -82 -43 -143 -99 -178 -267 -83 -407 56
-84 143 -126 285 -139 35 -3 72 -11 82 -17 10 -7 37 -48 60 -92 57 -109 136
-258 209 -391 32 -60 58 -111 56 -113 -2 -2 -47 8 -102 22 -100 25 -176 41
-248 52 -22 3 -47 7 -55 9 -8 3 -32 7 -54 11 -21 3 -48 8 -60 10 -11 3 -39 7
-61 10 -22 3 -51 11 -64 17 -25 13 -30 19 -56 78 -26 58 -79 113 -143 147 -69
37 -113 47 -202 45 -74 -1 -122 -18 -190 -68 -194 -142 -168 -422 48 -523 50
-23 70 -27 157 -27 87 0 107 3 156 26 72 34 129 86 159 144 36 71 37 71 158
52 450 -72 554 -106 649 -211 53 -59 195 -343 165 -331 -54 23 -167 46 -237
49 -98 4 -192 -14 -306 -60 -48 -19 -95 -34 -105 -34 -11 0 -47 27 -81 60 -34
32 -86 72 -115 87 -47 24 -64 27 -148 28 -82 0 -103 -4 -152 -27 -76 -35 -142
-98 -175 -167 -22 -46 -27 -70 -27 -136 0 -131 55 -215 183 -278 57 -28 73
-31 145 -30 178 2 310 100 353 265 l17 67 74 36 c124 60 189 78 284 81 135 3
242 -25 330 -88 65 -46 103 -100 186 -258 38 -74 85 -162 104 -195 18 -33 44
-82 58 -108 34 -65 56 -87 88 -87 45 0 56 13 47 56 -4 22 -10 44 -15 49 -7 10
-38 69 -221 421 -49 94 -89 181 -89 192 0 22 38 142 63 202 48 110 165 219
322 297 l60 30 85 -24 c160 -45 278 -29 368 52 78 70 111 172 89 274 -40 187
-303 306 -491 223 -25 -12 -68 -43 -95 -71 -77 -79 -95 -179 -56 -306 11 -34
15 -60 9 -62 -21 -7 -187 -121 -237 -163 -70 -58 -143 -150 -177 -222 -20 -42
-30 -54 -37 -45 -15 19 -78 135 -142 262 -51 99 -58 120 -51 149 7 32 243 482
281 537 18 26 20 26 126 23 88 -2 117 1 159 17 67 25 123 75 159 140 26 47 30
64 30 134 0 63 -5 89 -23 122 -33 63 -90 116 -165 153 -59 29 -76 33 -149 33
-142 0 -250 -59 -305 -167 -53 -103 -35 -229 47 -323 17 -18 30 -40 30 -48 0
-8 -22 -54 -49 -102 -26 -49 -65 -119 -86 -158 -21 -38 -56 -101 -77 -140 -21
-38 -44 -80 -50 -93 -13 -25 -9 -31 -173 283 -118 227 -125 242 -125 257 0 7
21 35 46 61 25 26 57 73 71 104 70 153 -30 330 -223 391 -44 14 -172 12 -216
-4z m212 -106 c112 -48 161 -155 115 -251 -57 -120 -244 -169 -344 -90 -52 42
-91 122 -86 180 8 102 110 184 222 179 32 -2 74 -9 93 -18z m1010 -83 c123
-64 155 -201 69 -298 -47 -54 -103 -76 -187 -73 -74 3 -142 40 -186 104 -71
101 -19 229 113 279 46 17 146 11 191 -12z m534 -689 c113 -66 136 -207 49
-298 -128 -134 -383 -38 -383 143 0 77 36 131 120 176 42 23 158 12 214 -21z
m-2149 -52 c19 -9 50 -33 69 -54 122 -136 20 -332 -174 -333 -148 -1 -252 118
-218 251 15 59 87 134 144 150 51 13 135 7 179 -14z m275 -807 c99 -42 147
-144 114 -243 -50 -152 -247 -212 -367 -113 -69 57 -95 156 -61 237 25 61 87
117 142 128 8 1 16 5 19 8 10 10 119 -2 153 -17z"/>
</g>
</svg>
